PathFileType	4	(X/Y/Z)	Walk5.trc
DataRate	CameraRate	NumFrames	NumMarkers	Units	OrigDataRate	OrigDataStartFrame	OrigNumFrames
200.000000	200.000000	4	69	mm	200.000000	290	453
Frame#	Times		LFHD		RFHD		LBHD		RBHD		C7		CLAV		STRN		RBack		LASI		RASI		LPSI		RPSI		RACR1		RUA1		RElbow		RFA1		RWRR		RWRU		RCAR		LACR1		LUA1		LElbow		LElbowM		LFA1		LWRR		LWRU		LCAR		RTH1		RTH3		RTH2		RTH4		RLFC		RTB1		RTB3		RTB2		RTB4		RLMAL		RMMAL		RCAL		RMT1		RMT5		RToe		LTH1		LTH3		LTH2		LTH4		LLFC		LTB1		LTB3		LTB2		LTB4		LMMAL		LMT1		LMT5		LHJC		LowerBodyModelVer		MidPelvis		OPelvis		PELOrigin		RHJC		SACR		XPelvis		YPelvis		ZPelvis		LToe		T10		LLMAL		LCAL		RElbowM
			X1	Y1	Z1	X2	Y2	Z2	X3	Y3	Z3	X4	Y4	Z4	X5	Y5	Z5	X6	Y6	Z6	X7	Y7	Z7	X8	Y8	Z8	X9	Y9	Z9	X10	Y10	Z10	X11	Y11	Z11	X12	Y12	Z12	X13	Y13	Z13	X14	Y14	Z14	X15	Y15	Z15	X16	Y16	Z16	X17	Y17	Z17	X18	Y18	Z18	X19	Y19	Z19	X20	Y20	Z20	X21	Y21	Z21	X22	Y22	Z22	X23	Y23	Z23	X24	Y24	Z24	X25	Y25	Z25	X26	Y26	Z26	X27	Y27	Z27	X28	Y28	Z28	X29	Y29	Z29	X30	Y30	Z30	X31	Y31	Z31	X32	Y32	Z32	X33	Y33	Z33	X34	Y34	Z34	X35	Y35	Z35	X36	Y36	Z36	X37	Y37	Z37	X38	Y38	Z38	X39	Y39	Z39	X40	Y40	Z40	X41	Y41	Z41	X42	Y42	Z42	X43	Y43	Z43	X44	Y44	Z44	X45	Y45	Z45	X46	Y46	Z46	X47	Y47	Z47	X48	Y48	Z48	X49	Y49	Z49	X50	Y50	Z50	X51	Y51	Z51	X52	Y52	Z52	X53	Y53	Z53	X54	Y54	Z54	X55	Y55	Z55	X56	Y56	Z56	X57	Y57	Z57	X58	Y58	Z58	X59	Y59	Z59	X60	Y60	Z60	X61	Y61	Z61	X62	Y62	Z62	X63	Y63	Z63	X64	Y64	Z64	X65	Y65	Z65	X66	Y66	Z66	X67	Y67	Z67	X68	Y68	Z68	X69	Y69	Z69

290	1.45	204.34	1607.1	-46.784	226.55	1606.1	45.762	51.765	1544.5	-43.721	85.068	1543	95.097	41.174	1417.7	18.812	179.86	1342	7.6824	240.94	1238.1	14.009	-8.95	1316.4	119.33	231.53	956.24	-127.81	233.99	985.19	161.87	-14.743	959.64	-28.972	-14.39	970.83	60.404	115.79	1371.1	165.85	101.89	1188.5	259.11	48.563	1070.2	286.66	56.827	923.39	306.85	142.61	826.77	278.57	82.415	816.1	316.65	148.05	776.31	331.33	117.41	1381	-145.46	115.09	1200.9	-240.22	85.634	1076.1	-270.77	44.983	1048	-201.86	111.1	938.17	-281.66	188.28	843.23	-224.82	151.76	828.49	-285.09	213.82	795.43	-259.18	165.73	750.47	231.74	164.16	584.55	182.77	220.05	673	188.62	163.44	666.58	205.6	161.23	498.09	155.6	195.93	343.73	76.047	177.28	172.19	69.503	166.38	258.12	128.91	186.6	257.96	72.775	132.66	59.665	90.026	145.53	69.766	8.0981	69.159	27.079	54.369	247.53	33.581	29.181	216.64	25.669	107.37	316.01	28.166	57.052	147.54	748.07	-200.97	184.95	586.45	-161.87	222.27	685.12	-169.35	165.91	668.9	-175.65	206.67	471.74	-142.04	169.04	326.93	-76.609	25.904	229.75	-77.565	79.042	302.36	-128.39	96.217	278.27	-74.951	-67.303	179.43	-15.785	-43.254	75.295	-36.593	-74.942	91.579	-104.17	165.31	866.78	-71.496	9	2014	4	109.1	967.97	16.372	232.76	970.71	17.028	232.76	970.71	17.028	166.98	886.46	125.49	-14.567	965.24	15.716	312.74	972.36	16.185	231.04	1050.3	9.0898	233.44	978.67	96.629	-9.8234	24.69	-74.012	-26.771	1151	4.9758	-86.751	192.83	-98.012	-142.77	222.32	-54.092	40.582	1038.1	192.87
291	1.455	209.82	1607.5	-46.634	232.1	1606.4	45.891	57.314	1544.7	-43.5	90.746	1543.1	95.288	46.785	1418.1	18.967	185.43	1342.3	7.6011	246.39	1238.2	13.521	-3.4168	1317	119.57	236.55	956.76	-127.72	239.07	985.08	161.97	-9.7954	960.19	-28.595	-9.2669	971.32	60.734	121.52	1371.6	165.89	107.71	1189.1	259.4	54.775	1070.8	287.24	63.649	924.01	307.62	149.73	827.64	279.22	89.711	816.85	317.59	155.61	777.48	332.21	122.72	1381.2	-145.46	119.58	1201	-240.04	89.482	1076.4	-270.47	48.82	1048.5	-201.47	113.6	938.31	-281.77	189.84	842.36	-225.43	153.13	828.33	-285.75	214.84	794.38	-260.03	169.67	750.35	231.76	166.8	584.56	182.61	223.35	672.55	188.53	166.67	666.54	205.44	162.62	498.1	155.6	196.5	343.65	76.244	177.47	172.15	69.566	166.62	258.1	129	186.99	257.9	72.905	132.67	59.704	89.986	145.57	69.793	8.0654	69.159	27.168	54.325	247.55	33.57	29.169	216.64	25.65	107.37	316	28.182	57.102	152.6	748.32	-200.7	193.18	587.39	-161.82	228.78	686.67	-170.01	172.6	669.49	-175.5	216.73	473.14	-142.04	181.25	327.96	-76.314	39.627	228.61	-77.223	91.691	301.91	-128.13	109.22	278.24	-74.631	-52.684	176.85	-15.432	-25.054	73.868	-37.185	-57.269	89.735	-104.64	170.24	867.27	-71.6	9	2014	4	114.14	968.34	16.597	237.81	970.92	17.125	237.81	970.92	17.125	171.95	886.53	125.39	-9.5312	965.75	16.069	317.79	972.47	16.278	236.18	1050.5	9.3567	238.5	978.7	96.742	10.184	24.92	-74.971	-21.526	1151.5	5.4713	-72.354	189.9	-97.664	-129.53	217.64	-53.748	46.771	1038.5	193.47
292	1.46	215.29	1607.9	-46.504	237.66	1606.7	46.001	62.856	1545	-43.302	96.416	1543.2	95.457	52.387	1418.5	19.12	190.98	1342.5	7.5032	251.81	1238.2	13.007	2.1257	1317.6	119.82	241.59	957.28	-127.64	244.11	984.99	162.09	-4.849	960.71	-28.257	-4.1545	971.76	61.022	127.27	1372	165.92	113.49	1189.7	259.7	60.952	1071.4	287.81	70.445	924.6	308.36	156.85	828.51	279.86	96.98	817.59	318.49	163.14	778.63	333.08	128.03	1381.4	-145.46	124.06	1201.1	-239.85	93.293	1076.6	-270.18	52.688	1049	-201.05	116.08	938.45	-281.89	191.4	841.5	-226.09	154.48	828.17	-286.42	215.86	793.36	-260.93	173.63	750.2	231.76	169.37	584.57	182.43	226.6	672.05	188.38	169.88	666.49	205.25	163.92	498.11	155.61	197.06	343.59	76.466	177.67	172.12	69.646	166.82	258.09	129.09	187.36	257.85	73.056	132.67	59.751	89.946	145.63	69.823	8.0301	69.156	27.26	54.278	247.57	33.56	29.163	216.65	25.629	107.38	315.99	28.201	57.158	157.67	748.5	-200.43	201.37	588.32	-161.72	235.25	688.17	-170.65	179.29	670.04	-175.34	226.69	474.54	-141.97	193.46	328.99	-75.968	53.498	227.32	-76.848	104.4	301.34	-127.84	122.28	278.13	-74.268	-37.859	174.03	-15.074	-6.6159	72.357	-37.677	-39.277	87.73	-105.05	175.19	867.75	-71.711	9	2014	4	119.17	968.68	16.804	242.85	971.13	17.225	242.85	971.13	17.225	176.91	886.59	125.3	-4.5018	966.23	16.383	322.83	972.61	16.387	241.3	1050.8	9.6237	243.54	978.75	96.859	30.481	25.192	-75.735	-16.288	1152	5.9645	-57.722	186.68	-97.328	-116.07	212.58	-53.449	52.977	1038.8	194.05
293	1.465	220.76	1608.3	-46.394	243.22	1607	46.093	68.392	1545.2	-43.127	102.08	1543.3	95.604	57.98	1418.8	19.27	196.52	1342.6	7.3894	257.22	1238.2	12.474	7.6808	1318.1	120.08	246.65	957.8	-127.55	249.13	984.92	162.21	0.098157	961.18	-27.959	0.94622	972.16	61.269	133.04	1372.4	165.95	119.22	1190.2	260.02	67.095	1071.9	288.35	77.215	925.17	309.05	163.97	829.36	280.49	104.22	818.32	319.34	170.66	779.78	333.93	133.32	1381.5	-145.46	128.51	1201.2	-239.68	97.069	1076.8	-269.89	56.588	1049.4	-200.61	118.54	938.59	-282.02	192.97	840.66	-226.78	155.83	828.02	-287.11	216.89	792.39	-261.9	177.59	750.02	231.74	171.84	584.59	182.24	229.81	671.51	188.19	173.05	666.44	205.06	165.14	498.12	155.62	197.62	343.53	76.708	177.86	172.09	69.742	166.98	258.09	129.19	187.74	257.81	73.225	132.67	59.803	89.905	145.7	69.855	7.9923	69.152	27.356	54.228	247.59	33.552	29.163	216.65	25.605	107.38	315.99	28.221	57.221	162.77	748.63	-200.16	209.51	589.24	-161.58	241.68	689.63	-171.27	185.96	670.56	-175.15	236.56	475.94	-141.83	205.65	330	-75.574	67.514	225.89	-76.446	117.16	300.67	-127.53	135.4	277.94	-73.867	-22.827	170.99	-14.717	12.044	70.778	-38.073	-20.985	85.58	-105.41	180.18	868.21	-71.827	9	2014	4	124.21	969.02	16.993	247.89	971.36	17.33	247.89	971.36	17.33	181.86	886.65	125.21	0.52219	966.67	16.655	327.87	972.78	16.513	246.4	1051	9.89	248.57	978.81	96.979	51.029	25.506	-76.308	-11.056	1152.4	6.4557	-42.853	183.19	-97.007	-102.36	207.15	-53.2	59.192	1039.2	194.62
